<?xml version="1.0" encoding="UTF-8" standalone="no"?>
<!-- Created with Inkscape (http://www.inkscape.org/) -->

<svg
   xmlns:dc="http://purl.org/dc/elements/1.1/"
   xmlns:cc="http://creativecommons.org/ns#"
   xmlns:rdf="http://www.w3.org/1999/02/22-rdf-syntax-ns#"
   xmlns:svg="http://www.w3.org/2000/svg"
   xmlns="http://www.w3.org/2000/svg"
   xmlns:sodipodi="http://sodipodi.sourceforge.net/DTD/sodipodi-0.dtd"
   xmlns:inkscape="http://www.inkscape.org/namespaces/inkscape"
   width="210mm"
   height="297mm"
   viewBox="0 0 744.09448819 1052.3622047"
   id="svg2"
   version="1.1"
   inkscape:version="0.91 r13725"
   sodipodi:docname="diagrams.svg">
  <defs
     id="defs4">
    <marker
       inkscape:stockid="Arrow1Lend"
       orient="auto"
       refY="0.0"
       refX="0.0"
       id="Arrow1Lend"
       style="overflow:visible;"
       inkscape:isstock="true">
      <path
         id="path4256"
         d="M 0.0,0.0 L 5.0,-5.0 L -12.5,0.0 L 5.0,5.0 L 0.0,0.0 z "
         style="fill-rule:evenodd;stroke:#000000;stroke-width:1pt;stroke-opacity:1;fill:#000000;fill-opacity:1"
         transform="scale(0.8) rotate(180) translate(12.5,0)" />
    </marker>
  </defs>
  <sodipodi:namedview
     id="base"
     pagecolor="#ffffff"
     bordercolor="#666666"
     borderopacity="1.0"
     inkscape:pageopacity="0.0"
     inkscape:pageshadow="2"
     inkscape:zoom="1.4"
     inkscape:cx="292.53453"
     inkscape:cy="825.10807"
     inkscape:document-units="px"
     inkscape:current-layer="layer1"
     showgrid="false"
     inkscape:window-width="1535"
     inkscape:window-height="876"
     inkscape:window-x="65"
     inkscape:window-y="24"
     inkscape:window-maximized="1" />
  <metadata
     id="metadata7">
    <rdf:RDF>
      <cc:Work
         rdf:about="">
        <dc:format>image/svg+xml</dc:format>
        <dc:type
           rdf:resource="http://purl.org/dc/dcmitype/StillImage" />
        <dc:title />
      </cc:Work>
    </rdf:RDF>
  </metadata>
  <g
     inkscape:label="Layer 1"
     inkscape:groupmode="layer"
     id="layer1">
    <path
       style="fill:#ff9191;fill-opacity:1;fill-rule:evenodd;stroke:#000000;stroke-width:2.46425915;stroke-linecap:butt;stroke-linejoin:miter;stroke-miterlimit:4;stroke-dasharray:none;stroke-opacity:1"
       d="m 354.12736,250.27556 c 0,0 -10.32957,-22.35995 -19.18757,-30.53611 -11.73301,-10.82988 -26.59283,-20.57233 -42.54634,-22.28312 -20.65889,-2.21538 -43.23647,4.4469 -60.06543,16.50601 -14.61602,10.47338 -33.40114,27.02598 -30.03271,44.56622 3.72899,19.41782 29.99663,28.45298 49.22028,33.83732 24.11786,6.75516 50.24399,-7.46393 75.08179,-4.12651 23.26566,3.12619 45.60913,32.41014 66.73936,22.28312 7.44073,-3.5661 26.70084,-14.78429 8.34242,-23.10841 -19.44974,-8.81895 -36.912,-20.20576 -47.5518,-37.13852 z"
       id="path4179"
       inkscape:connector-curvature="0"
       sodipodi:nodetypes="ssssssssss" />
    <path
       style="fill:none;fill-rule:evenodd;stroke:#000000;stroke-width:3;stroke-linecap:butt;stroke-linejoin:miter;stroke-miterlimit:4;stroke-dasharray:none;stroke-opacity:1"
       d="m 278.8021,269.49398 c 0,0 -67.46628,-74.69499 -54.54823,-115.15739 C 251.71701,68.315485 371.79979,38.227763 460.62956,22.006608 531.97546,8.9781734 611.85191,20.102325 675.79205,54.33149 c 21.64615,11.587866 40.65443,31.643329 49.49748,54.54824 19.40389,50.25916 15.90568,110.15107 0,161.6244 -26.60824,86.10852 -75.84412,175.89939 -152.53304,223.24372 -34.11826,21.0631 -82.30269,31.86103 -119.198,16.16244 -71.05632,-25.52632 -21.44661,-105.21599 -64.64976,-136.3706 -32.53625,-15.26828 -49.50239,-29.24772 -65.1353,-50.26342 -13.58186,-18.25842 -20.80161,-38.54685 -44.97133,-53.78229 z"
       id="path4185"
       inkscape:connector-curvature="0"
       sodipodi:nodetypes="cssssssccsc" />
    <path
       style="opacity:1;fill:#ddfedb;fill-opacity:1;stroke:#000000;stroke-width:0;stroke-miterlimit:4;stroke-dasharray:none;stroke-opacity:1"
       d="m 461.4434,509.9172 c -34.93,-11.67084 -45.61812,-27.64708 -48.44073,-72.40767 -2.35265,-37.30813 -7.1421,-53.10659 -18.98075,-62.60986 -3.28865,-2.63989 -13.49046,-8.8886 -22.6707,-13.88598 -21.89575,-11.91928 -40.60951,-30.2866 -53.50193,-52.51151 -5.61375,-9.6774 -14.30907,-21.12197 -19.95477,-26.26397 -34.21847,-31.16557 -58.02565,-64.42861 -68.69287,-95.9767 -5.63444,-16.66372 -4.54579,-29.15499 4.05859,-46.56891 26.66737,-53.970582 98.17057,-90.816629 222.12225,-114.460996 20.63903,-3.936993 30.55176,-4.608043 66.67007,-4.513284 47.52416,0.124683 66.2241,2.980769 105.74321,16.150416 61.00895,20.331075 88.9269,45.972491 101.70008,93.407024 5.84102,21.69125 7.38383,72.9339 2.96267,98.40273 -10.43671,60.12268 -44.85497,139.28878 -81.59347,187.67471 -35.18818,46.34408 -74.74369,77.953 -113.89222,91.01157 -24.50608,8.17438 -55.56221,9.22388 -75.52943,2.55243 z"
       id="path4206"
       inkscape:connector-curvature="0" />
    <text
       xml:space="preserve"
       style="color:#000000;font-style:normal;font-variant:normal;font-weight:normal;font-stretch:normal;font-size:17.5px;line-height:125%;font-family:'Liberation Sans';-inkscape-font-specification:'Liberation Sans';text-indent:0;text-align:start;text-decoration:none;text-decoration-line:none;text-decoration-style:solid;text-decoration-color:#000000;letter-spacing:0px;word-spacing:0px;text-transform:none;direction:ltr;block-progression:tb;writing-mode:lr-tb;baseline-shift:baseline;text-anchor:start;white-space:normal;clip-rule:nonzero;display:inline;overflow:visible;visibility:visible;opacity:1;isolation:auto;mix-blend-mode:normal;color-interpolation:sRGB;color-interpolation-filters:linearRGB;solid-color:#000000;solid-opacity:1;fill:#000000;fill-opacity:1;fill-rule:nonzero;stroke:none;stroke-width:1px;stroke-linecap:butt;stroke-linejoin:miter;stroke-miterlimit:4;stroke-dasharray:none;stroke-dashoffset:0;stroke-opacity:1;color-rendering:auto;image-rendering:auto;shape-rendering:auto;text-rendering:auto;enable-background:accumulate"
       x="233.99646"
       y="258.19955"
       id="text4218"
       sodipodi:linespacing="125%"><tspan
         sodipodi:role="line"
         id="tspan4220"
         x="233.99646"
         y="258.19955"
         style="font-size:12.5px;text-align:center;text-anchor:middle">Hot coffee</tspan><tspan
         sodipodi:role="line"
         x="233.99646"
         y="273.82455"
         id="tspan4222"
         style="font-size:12.5px;text-align:center;text-anchor:middle">Cool air</tspan></text>
    <path
       style="fill:none;fill-rule:evenodd;stroke:#000000;stroke-width:1px;stroke-linecap:butt;stroke-linejoin:miter;stroke-opacity:1;marker-end:url(#Arrow1Lend)"
       d="m 226.42857,235.93364 c 0,0 24.25394,-17.17885 37.85715,-22.85714 19.71745,-8.23052 40.79948,-14.72448 62.14285,-15.71429 15.40643,-0.71448 30.53009,4.43943 45.71429,7.14286 13.14781,2.34087 39.28571,7.85714 39.28571,7.85714"
       id="path4247"
       inkscape:connector-curvature="0"
       sodipodi:nodetypes="csssc" />
    <text
       xml:space="preserve"
       style="color:#000000;font-style:normal;font-variant:normal;font-weight:normal;font-stretch:normal;font-size:17.5px;line-height:125%;font-family:'Liberation Sans';-inkscape-font-specification:'Liberation Sans';text-indent:0;text-align:start;text-decoration:none;text-decoration-line:none;text-decoration-style:solid;text-decoration-color:#000000;letter-spacing:0px;word-spacing:0px;text-transform:none;direction:ltr;block-progression:tb;writing-mode:lr-tb;baseline-shift:baseline;text-anchor:start;white-space:normal;clip-rule:nonzero;display:inline;overflow:visible;visibility:visible;opacity:1;isolation:auto;mix-blend-mode:normal;color-interpolation:sRGB;color-interpolation-filters:linearRGB;solid-color:#000000;solid-opacity:1;fill:#000000;fill-opacity:1;fill-rule:nonzero;stroke:none;stroke-width:1px;stroke-linecap:butt;stroke-linejoin:miter;stroke-miterlimit:4;stroke-dasharray:none;stroke-dashoffset:0;stroke-opacity:1;color-rendering:auto;image-rendering:auto;shape-rendering:auto;text-rendering:auto;enable-background:accumulate"
       x="506.19666"
       y="140.43994"
       id="text4218-3"
       sodipodi:linespacing="125%"><tspan
         sodipodi:role="line"
         x="506.19666"
         y="140.43994"
         id="tspan4222-5"
         style="font-size:12.5px;text-align:center;text-anchor:middle">Cool coffee</tspan><tspan
         sodipodi:role="line"
         x="506.19666"
         y="156.06496"
         style="font-size:12.5px;text-align:center;text-anchor:middle"
         id="tspan4268">Slightly warmer air</tspan></text>
  </g>
</svg>
